<?xml version="1.0" encoding="UTF-8"?>
<svg xmlns="http://www.w3.org/2000/svg" width="30" height="20" viewBox="0 0 30 20">
  <rect width="30" height="20" fill="#de2910"/>
  <g fill="#ffde00">
    <!-- 大星 -->
    <polygon points="6,4 7.236,7.236 10.472,6 8.236,8.236 10.472,11.472 7.236,10.236 6,13.472 4.764,10.236 1.528,11.472 3.764,8.236 1.528,6 4.764,7.236"/>
    <!-- 四颗小星 -->
    <polygon points="12,2 12.618,3.618 14.236,3 13.118,4.118 14.236,5.236 12.618,4.618 12,6.236 11.382,4.618 9.764,5.236 10.882,4.118 9.764,3 11.382,3.618"/>
    <polygon points="14,5 14.618,6.618 16.236,6 15.118,7.118 16.236,8.236 14.618,7.618 14,9.236 13.382,7.618 11.764,8.236 12.882,7.118 11.764,6 13.382,6.618"/>
    <polygon points="14,9 14.618,10.618 16.236,10 15.118,11.118 16.236,12.236 14.618,11.618 14,13.236 13.382,11.618 11.764,12.236 12.882,11.118 11.764,10 13.382,10.618"/>
    <polygon points="12,12 12.618,13.618 14.236,13 13.118,14.118 14.236,15.236 12.618,14.618 12,16.236 11.382,14.618 9.764,15.236 10.882,14.118 9.764,13 11.382,13.618"/>
  </g>
</svg>
