<?xml version="1.0" encoding="UTF-8"?>
<svg xmlns="http://www.w3.org/2000/svg" width="30" height="20" viewBox="0 0 30 20">
  <!-- 红白条纹 -->
  <rect width="30" height="20" fill="#b22234"/>
  <rect y="1.54" width="30" height="1.54" fill="#ffffff"/>
  <rect y="4.62" width="30" height="1.54" fill="#ffffff"/>
  <rect y="7.69" width="30" height="1.54" fill="#ffffff"/>
  <rect y="10.77" width="30" height="1.54" fill="#ffffff"/>
  <rect y="13.85" width="30" height="1.54" fill="#ffffff"/>
  <rect y="16.92" width="30" height="1.54" fill="#ffffff"/>
  <!-- 蓝色方框 -->
  <rect width="12" height="10.77" fill="#3c3b6e"/>
  <!-- 简化的星星 -->
  <g fill="#ffffff">
    <circle cx="2" cy="1.5" r="0.3"/>
    <circle cx="4" cy="1.5" r="0.3"/>
    <circle cx="6" cy="1.5" r="0.3"/>
    <circle cx="8" cy="1.5" r="0.3"/>
    <circle cx="10" cy="1.5" r="0.3"/>
    <circle cx="3" cy="2.5" r="0.3"/>
    <circle cx="5" cy="2.5" r="0.3"/>
    <circle cx="7" cy="2.5" r="0.3"/>
    <circle cx="9" cy="2.5" r="0.3"/>
    <circle cx="2" cy="3.5" r="0.3"/>
    <circle cx="4" cy="3.5" r="0.3"/>
    <circle cx="6" cy="3.5" r="0.3"/>
    <circle cx="8" cy="3.5" r="0.3"/>
    <circle cx="10" cy="3.5" r="0.3"/>
  </g>
</svg>
